<svg width="512" height="512" viewBox="0 0 512 512" fill="none" xmlns="http://www.w3.org/2000/svg">
<path d="M270.08 410.017L290.576 473.585C292.656 480.305 300.976 482.385 305.936 477.425C336.816 446.545 388.016 394.545 391.536 366.065C393.2 353.873 388.752 337.649 383.776 323.313C353.856 353.729 316.592 383.265 270.08 410.017ZM188.688 128.225C174.368 123.249 158.128 118.801 145.936 120.465C117.456 123.985 65.4564 175.185 34.5764 206.065C29.6164 211.025 31.6964 219.345 38.4164 221.425L101.984 241.905C128.736 195.409 158.272 158.145 188.688 128.225ZM148.192 434.753C103.936 460.129 52.3524 460.305 51.7124 460.305C51.7124 459.649 51.8724 408.081 77.2644 363.825L148.192 434.753ZM343.312 137.057C334.864 137.057 326.928 140.353 320.96 146.321C314.976 152.305 311.68 160.241 311.68 168.689C311.68 177.137 314.976 185.089 320.96 191.057C332.88 203.025 353.728 203.025 365.68 191.057C370.081 186.624 373.074 180.989 374.281 174.861C375.489 168.732 374.857 162.384 372.467 156.613C370.077 150.842 366.034 145.907 360.846 142.427C355.659 138.948 349.559 137.079 343.312 137.057Z" fill="#C9910A"/>
<path d="M459.872 31.8411C399.712 32.9771 216.096 56.7851 101.6 293.921C97.9201 301.537 99.5201 310.705 105.504 316.673L195.312 406.481C201.296 412.465 210.448 414.065 218.064 410.385C455.216 295.905 479.024 112.289 480.16 52.1291C480.221 49.4481 479.738 46.7825 478.741 44.2933C477.743 41.8042 476.251 39.5432 474.354 37.6469C472.458 35.7507 470.197 34.2585 467.708 33.2606C465.219 32.2628 462.553 31.7799 459.872 31.8411ZM386.048 211.425C374.624 222.833 359.456 229.121 343.312 229.121C327.168 229.121 311.984 222.833 300.576 211.425C289.168 200.017 282.88 184.833 282.88 168.689C282.88 152.545 289.184 137.361 300.576 125.953C323.392 103.137 363.2 103.137 386.048 125.953C397.36 137.299 403.713 152.667 403.713 168.689C403.713 184.711 397.36 200.079 386.048 211.425Z" fill="#C9910A"/>
</svg>
