<svg width="20" height="18" viewBox="0 0 20 18" fill="none" xmlns="http://www.w3.org/2000/svg">
<path d="M12.4546 0C9.06299 0 6.11231 2.27246 5.20264 5.43262C5.07568 5.42188 4.94775 5.41699 4.81836 5.41699C2.16162 5.41699 0 7.56641 0 10.208C0 11.4072 0.44873 12.5547 1.26318 13.4395C1.46045 13.6543 1.72949 13.7627 1.99951 13.7627C2.24121 13.7627 2.48389 13.6758 2.67627 13.498C3.08252 13.125 3.10889 12.4922 2.73486 12.0859C2.26074 11.5703 2 10.9043 2 10.208C2 8.66895 3.26416 7.41699 4.81836 7.41699C5.10644 7.41699 5.38428 7.46094 5.66894 7.55273C5.95166 7.64355 6.25732 7.60449 6.50684 7.44726C6.75732 7.29004 6.92481 7.03027 6.96533 6.7373C7.33789 4.03613 9.69775 2 12.4546 2C15.5122 2 18 4.46777 18 7.5C18 8.55273 17.6987 9.57519 17.1284 10.458C16.8286 10.9219 16.9619 11.541 17.4258 11.8408C17.8887 12.1406 18.5093 12.0078 18.8081 11.5439C19.5879 10.3369 20 8.93848 20 7.5C20 3.36426 16.6152 0 12.4546 0Z" fill="#C9910A"/>
<path d="M13.7461 11.4209L11 10.3228V8C11 7.44727 10.5522 7 10 7C9.44775 7 9 7.44727 9 8V10.323L6.24609 11.4268C4.87793 11.9746 3.99414 13.2812 3.99414 14.7549V17C3.99414 17.5527 4.44189 18 4.99414 18C5.54639 18 5.99414 17.5527 5.99414 17V14.7549C5.99414 14.1035 6.38477 13.5254 6.98975 13.2842L9 12.4783V15C9 15.5527 9.44775 16 10 16C10.5522 16 11 15.5527 11 15V12.4769L13.0034 13.2783C13.6089 13.5205 14 14.0977 14 14.75V17C14 17.5527 14.4478 18 15 18C15.5522 18 16 17.5527 16 17V14.75C16 13.2754 15.1152 11.9688 13.7461 11.4209Z" fill="#C9910A"/>
</svg>
